<mxfile host="Electron" modified="2024-02-13T09:12:44.587Z" agent="Mozilla/5.0 (Windows NT 10.0; Win64; x64) AppleWebKit/537.36 (KHTML, like Gecko) draw.io/23.0.2 Chrome/120.0.6099.109 Electron/28.1.0 Safari/537.36" etag="x6dp1oy0vGHcqpjokjzH" version="23.0.2" type="device">
  <diagram name="Page-1" id="1pk9ROqWLuKF-kO8mDav">
    <mxGraphModel dx="1434" dy="836" grid="1" gridSize="10" guides="1" tooltips="1" connect="1" arrows="1" fold="1" page="1" pageScale="1" pageWidth="827" pageHeight="1169" math="0" shadow="0">
      <root>
        <mxCell id="0" />
        <mxCell id="1" parent="0" />
        <mxCell id="Jix4g11LHQ9OMPvcUQxs-1" value="" style="ellipse;whiteSpace=wrap;html=1;aspect=fixed;" vertex="1" parent="1">
          <mxGeometry x="374" y="80" width="80" height="80" as="geometry" />
        </mxCell>
        <mxCell id="Jix4g11LHQ9OMPvcUQxs-2" value="" style="ellipse;whiteSpace=wrap;html=1;aspect=fixed;" vertex="1" parent="1">
          <mxGeometry x="374" y="270" width="80" height="80" as="geometry" />
        </mxCell>
        <mxCell id="Jix4g11LHQ9OMPvcUQxs-3" value="" style="ellipse;whiteSpace=wrap;html=1;aspect=fixed;" vertex="1" parent="1">
          <mxGeometry x="374" y="460" width="80" height="80" as="geometry" />
        </mxCell>
        <mxCell id="Jix4g11LHQ9OMPvcUQxs-4" value="" style="endArrow=none;html=1;rounded=0;exitX=1;exitY=0.5;exitDx=0;exitDy=0;" edge="1" parent="1">
          <mxGeometry width="50" height="50" relative="1" as="geometry">
            <mxPoint x="455" y="500" as="sourcePoint" />
            <mxPoint x="541" y="510" as="targetPoint" />
          </mxGeometry>
        </mxCell>
        <mxCell id="Jix4g11LHQ9OMPvcUQxs-14" value="Meaty" style="edgeLabel;html=1;align=center;verticalAlign=middle;resizable=0;points=[];" vertex="1" connectable="0" parent="Jix4g11LHQ9OMPvcUQxs-4">
          <mxGeometry x="-0.143" y="1" relative="1" as="geometry">
            <mxPoint as="offset" />
          </mxGeometry>
        </mxCell>
        <mxCell id="Jix4g11LHQ9OMPvcUQxs-6" value="" style="endArrow=none;html=1;rounded=0;exitX=1;exitY=0.5;exitDx=0;exitDy=0;" edge="1" parent="1" source="Jix4g11LHQ9OMPvcUQxs-1">
          <mxGeometry width="50" height="50" relative="1" as="geometry">
            <mxPoint x="470" y="120" as="sourcePoint" />
            <mxPoint x="556" y="130" as="targetPoint" />
          </mxGeometry>
        </mxCell>
        <mxCell id="Jix4g11LHQ9OMPvcUQxs-9" value="Vegetarian" style="edgeLabel;html=1;align=center;verticalAlign=middle;resizable=0;points=[];" vertex="1" connectable="0" parent="Jix4g11LHQ9OMPvcUQxs-6">
          <mxGeometry x="0.0289" y="-5" relative="1" as="geometry">
            <mxPoint x="-6" y="-10" as="offset" />
          </mxGeometry>
        </mxCell>
        <mxCell id="Jix4g11LHQ9OMPvcUQxs-7" value="" style="endArrow=none;html=1;rounded=0;exitX=1;exitY=0.5;exitDx=0;exitDy=0;" edge="1" parent="1" source="Jix4g11LHQ9OMPvcUQxs-2">
          <mxGeometry width="50" height="50" relative="1" as="geometry">
            <mxPoint x="464" y="310" as="sourcePoint" />
            <mxPoint x="550" y="320" as="targetPoint" />
          </mxGeometry>
        </mxCell>
        <mxCell id="Jix4g11LHQ9OMPvcUQxs-10" value="Vegan" style="edgeLabel;html=1;align=center;verticalAlign=middle;resizable=0;points=[];" vertex="1" connectable="0" parent="Jix4g11LHQ9OMPvcUQxs-7">
          <mxGeometry x="-0.1627" y="-2" relative="1" as="geometry">
            <mxPoint as="offset" />
          </mxGeometry>
        </mxCell>
        <mxCell id="Jix4g11LHQ9OMPvcUQxs-30" style="rounded=0;orthogonalLoop=1;jettySize=auto;html=1;exitX=1;exitY=0.5;exitDx=0;exitDy=0;entryX=0;entryY=0.5;entryDx=0;entryDy=0;" edge="1" parent="1" source="Jix4g11LHQ9OMPvcUQxs-15" target="Jix4g11LHQ9OMPvcUQxs-1">
          <mxGeometry relative="1" as="geometry" />
        </mxCell>
        <mxCell id="Jix4g11LHQ9OMPvcUQxs-31" style="rounded=0;orthogonalLoop=1;jettySize=auto;html=1;exitX=1;exitY=0.5;exitDx=0;exitDy=0;entryX=0;entryY=0.5;entryDx=0;entryDy=0;" edge="1" parent="1" source="Jix4g11LHQ9OMPvcUQxs-15" target="Jix4g11LHQ9OMPvcUQxs-2">
          <mxGeometry relative="1" as="geometry" />
        </mxCell>
        <mxCell id="Jix4g11LHQ9OMPvcUQxs-32" style="rounded=0;orthogonalLoop=1;jettySize=auto;html=1;exitX=1;exitY=0.5;exitDx=0;exitDy=0;entryX=0;entryY=0.5;entryDx=0;entryDy=0;" edge="1" parent="1" source="Jix4g11LHQ9OMPvcUQxs-15" target="Jix4g11LHQ9OMPvcUQxs-3">
          <mxGeometry relative="1" as="geometry" />
        </mxCell>
        <mxCell id="Jix4g11LHQ9OMPvcUQxs-15" value="Corn" style="text;html=1;strokeColor=none;fillColor=none;align=center;verticalAlign=middle;whiteSpace=wrap;rounded=0;" vertex="1" parent="1">
          <mxGeometry x="30" y="50" width="60" height="30" as="geometry" />
        </mxCell>
        <mxCell id="Jix4g11LHQ9OMPvcUQxs-33" style="rounded=0;orthogonalLoop=1;jettySize=auto;html=1;exitX=1;exitY=0.5;exitDx=0;exitDy=0;entryX=0;entryY=0.5;entryDx=0;entryDy=0;" edge="1" parent="1" source="Jix4g11LHQ9OMPvcUQxs-16" target="Jix4g11LHQ9OMPvcUQxs-1">
          <mxGeometry relative="1" as="geometry" />
        </mxCell>
        <mxCell id="Jix4g11LHQ9OMPvcUQxs-34" style="rounded=0;orthogonalLoop=1;jettySize=auto;html=1;exitX=1;exitY=0.5;exitDx=0;exitDy=0;entryX=0;entryY=0.5;entryDx=0;entryDy=0;" edge="1" parent="1" source="Jix4g11LHQ9OMPvcUQxs-16" target="Jix4g11LHQ9OMPvcUQxs-2">
          <mxGeometry relative="1" as="geometry" />
        </mxCell>
        <mxCell id="Jix4g11LHQ9OMPvcUQxs-35" style="rounded=0;orthogonalLoop=1;jettySize=auto;html=1;exitX=1;exitY=0.5;exitDx=0;exitDy=0;entryX=0;entryY=0.5;entryDx=0;entryDy=0;" edge="1" parent="1" source="Jix4g11LHQ9OMPvcUQxs-16" target="Jix4g11LHQ9OMPvcUQxs-3">
          <mxGeometry relative="1" as="geometry" />
        </mxCell>
        <mxCell id="Jix4g11LHQ9OMPvcUQxs-16" value="Olives" style="text;html=1;strokeColor=none;fillColor=none;align=center;verticalAlign=middle;whiteSpace=wrap;rounded=0;" vertex="1" parent="1">
          <mxGeometry x="30" y="80" width="60" height="30" as="geometry" />
        </mxCell>
        <mxCell id="Jix4g11LHQ9OMPvcUQxs-36" style="rounded=0;orthogonalLoop=1;jettySize=auto;html=1;exitX=1;exitY=0.5;exitDx=0;exitDy=0;entryX=0;entryY=0.5;entryDx=0;entryDy=0;" edge="1" parent="1" source="Jix4g11LHQ9OMPvcUQxs-17" target="Jix4g11LHQ9OMPvcUQxs-1">
          <mxGeometry relative="1" as="geometry" />
        </mxCell>
        <mxCell id="Jix4g11LHQ9OMPvcUQxs-37" style="rounded=0;orthogonalLoop=1;jettySize=auto;html=1;exitX=1;exitY=0.5;exitDx=0;exitDy=0;entryX=0;entryY=0.5;entryDx=0;entryDy=0;" edge="1" parent="1" source="Jix4g11LHQ9OMPvcUQxs-17" target="Jix4g11LHQ9OMPvcUQxs-2">
          <mxGeometry relative="1" as="geometry" />
        </mxCell>
        <mxCell id="Jix4g11LHQ9OMPvcUQxs-38" style="rounded=0;orthogonalLoop=1;jettySize=auto;html=1;exitX=1;exitY=0.5;exitDx=0;exitDy=0;entryX=0;entryY=0.5;entryDx=0;entryDy=0;" edge="1" parent="1" source="Jix4g11LHQ9OMPvcUQxs-17" target="Jix4g11LHQ9OMPvcUQxs-3">
          <mxGeometry relative="1" as="geometry" />
        </mxCell>
        <mxCell id="Jix4g11LHQ9OMPvcUQxs-17" value="Mushrooms" style="text;html=1;strokeColor=none;fillColor=none;align=center;verticalAlign=middle;whiteSpace=wrap;rounded=0;" vertex="1" parent="1">
          <mxGeometry x="30" y="110" width="60" height="30" as="geometry" />
        </mxCell>
        <mxCell id="Jix4g11LHQ9OMPvcUQxs-39" style="rounded=0;orthogonalLoop=1;jettySize=auto;html=1;exitX=1;exitY=0.5;exitDx=0;exitDy=0;entryX=0;entryY=0.5;entryDx=0;entryDy=0;" edge="1" parent="1" source="Jix4g11LHQ9OMPvcUQxs-18" target="Jix4g11LHQ9OMPvcUQxs-1">
          <mxGeometry relative="1" as="geometry" />
        </mxCell>
        <mxCell id="Jix4g11LHQ9OMPvcUQxs-40" style="rounded=0;orthogonalLoop=1;jettySize=auto;html=1;exitX=1;exitY=0.5;exitDx=0;exitDy=0;entryX=0;entryY=0.5;entryDx=0;entryDy=0;" edge="1" parent="1" source="Jix4g11LHQ9OMPvcUQxs-18" target="Jix4g11LHQ9OMPvcUQxs-2">
          <mxGeometry relative="1" as="geometry" />
        </mxCell>
        <mxCell id="Jix4g11LHQ9OMPvcUQxs-41" style="rounded=0;orthogonalLoop=1;jettySize=auto;html=1;exitX=1;exitY=0.5;exitDx=0;exitDy=0;entryX=0;entryY=0.5;entryDx=0;entryDy=0;" edge="1" parent="1" source="Jix4g11LHQ9OMPvcUQxs-18" target="Jix4g11LHQ9OMPvcUQxs-3">
          <mxGeometry relative="1" as="geometry" />
        </mxCell>
        <mxCell id="Jix4g11LHQ9OMPvcUQxs-18" value="Spinach" style="text;html=1;strokeColor=none;fillColor=none;align=center;verticalAlign=middle;whiteSpace=wrap;rounded=0;" vertex="1" parent="1">
          <mxGeometry x="30" y="140" width="60" height="30" as="geometry" />
        </mxCell>
        <mxCell id="Jix4g11LHQ9OMPvcUQxs-42" style="rounded=0;orthogonalLoop=1;jettySize=auto;html=1;exitX=1;exitY=0.5;exitDx=0;exitDy=0;entryX=0;entryY=0.5;entryDx=0;entryDy=0;" edge="1" parent="1" source="Jix4g11LHQ9OMPvcUQxs-19" target="Jix4g11LHQ9OMPvcUQxs-1">
          <mxGeometry relative="1" as="geometry" />
        </mxCell>
        <mxCell id="Jix4g11LHQ9OMPvcUQxs-43" style="rounded=0;orthogonalLoop=1;jettySize=auto;html=1;exitX=1;exitY=0.5;exitDx=0;exitDy=0;entryX=0;entryY=0.5;entryDx=0;entryDy=0;" edge="1" parent="1" source="Jix4g11LHQ9OMPvcUQxs-19" target="Jix4g11LHQ9OMPvcUQxs-2">
          <mxGeometry relative="1" as="geometry" />
        </mxCell>
        <mxCell id="Jix4g11LHQ9OMPvcUQxs-44" style="rounded=0;orthogonalLoop=1;jettySize=auto;html=1;exitX=1;exitY=0.5;exitDx=0;exitDy=0;entryX=0;entryY=0.5;entryDx=0;entryDy=0;" edge="1" parent="1" source="Jix4g11LHQ9OMPvcUQxs-19" target="Jix4g11LHQ9OMPvcUQxs-3">
          <mxGeometry relative="1" as="geometry" />
        </mxCell>
        <mxCell id="Jix4g11LHQ9OMPvcUQxs-19" value="Pineapple" style="text;html=1;strokeColor=none;fillColor=none;align=center;verticalAlign=middle;whiteSpace=wrap;rounded=0;" vertex="1" parent="1">
          <mxGeometry x="30" y="170" width="60" height="30" as="geometry" />
        </mxCell>
        <mxCell id="Jix4g11LHQ9OMPvcUQxs-45" style="rounded=0;orthogonalLoop=1;jettySize=auto;html=1;exitX=1;exitY=0.5;exitDx=0;exitDy=0;entryX=0;entryY=0.5;entryDx=0;entryDy=0;" edge="1" parent="1" source="Jix4g11LHQ9OMPvcUQxs-20" target="Jix4g11LHQ9OMPvcUQxs-1">
          <mxGeometry relative="1" as="geometry" />
        </mxCell>
        <mxCell id="Jix4g11LHQ9OMPvcUQxs-46" style="rounded=0;orthogonalLoop=1;jettySize=auto;html=1;exitX=1;exitY=0.5;exitDx=0;exitDy=0;entryX=0;entryY=0.5;entryDx=0;entryDy=0;" edge="1" parent="1" source="Jix4g11LHQ9OMPvcUQxs-20" target="Jix4g11LHQ9OMPvcUQxs-2">
          <mxGeometry relative="1" as="geometry" />
        </mxCell>
        <mxCell id="Jix4g11LHQ9OMPvcUQxs-47" style="rounded=0;orthogonalLoop=1;jettySize=auto;html=1;exitX=1;exitY=0.5;exitDx=0;exitDy=0;entryX=0;entryY=0.5;entryDx=0;entryDy=0;" edge="1" parent="1" source="Jix4g11LHQ9OMPvcUQxs-20" target="Jix4g11LHQ9OMPvcUQxs-3">
          <mxGeometry relative="1" as="geometry" />
        </mxCell>
        <mxCell id="Jix4g11LHQ9OMPvcUQxs-20" value="Artichoke" style="text;html=1;strokeColor=none;fillColor=none;align=center;verticalAlign=middle;whiteSpace=wrap;rounded=0;" vertex="1" parent="1">
          <mxGeometry x="30" y="200" width="60" height="30" as="geometry" />
        </mxCell>
        <mxCell id="Jix4g11LHQ9OMPvcUQxs-48" style="rounded=0;orthogonalLoop=1;jettySize=auto;html=1;exitX=1;exitY=0.5;exitDx=0;exitDy=0;entryX=0;entryY=0.5;entryDx=0;entryDy=0;" edge="1" parent="1" source="Jix4g11LHQ9OMPvcUQxs-21" target="Jix4g11LHQ9OMPvcUQxs-1">
          <mxGeometry relative="1" as="geometry" />
        </mxCell>
        <mxCell id="Jix4g11LHQ9OMPvcUQxs-49" style="rounded=0;orthogonalLoop=1;jettySize=auto;html=1;exitX=1;exitY=0.5;exitDx=0;exitDy=0;entryX=0;entryY=0.5;entryDx=0;entryDy=0;" edge="1" parent="1" source="Jix4g11LHQ9OMPvcUQxs-21" target="Jix4g11LHQ9OMPvcUQxs-2">
          <mxGeometry relative="1" as="geometry" />
        </mxCell>
        <mxCell id="Jix4g11LHQ9OMPvcUQxs-50" style="rounded=0;orthogonalLoop=1;jettySize=auto;html=1;exitX=1;exitY=0.5;exitDx=0;exitDy=0;entryX=0;entryY=0.5;entryDx=0;entryDy=0;" edge="1" parent="1" source="Jix4g11LHQ9OMPvcUQxs-21" target="Jix4g11LHQ9OMPvcUQxs-3">
          <mxGeometry relative="1" as="geometry" />
        </mxCell>
        <mxCell id="Jix4g11LHQ9OMPvcUQxs-21" value="Chilli" style="text;html=1;strokeColor=none;fillColor=none;align=center;verticalAlign=middle;whiteSpace=wrap;rounded=0;" vertex="1" parent="1">
          <mxGeometry x="30" y="230" width="60" height="30" as="geometry" />
        </mxCell>
        <mxCell id="Jix4g11LHQ9OMPvcUQxs-51" style="rounded=0;orthogonalLoop=1;jettySize=auto;html=1;exitX=1;exitY=0.5;exitDx=0;exitDy=0;entryX=0;entryY=0.5;entryDx=0;entryDy=0;" edge="1" parent="1" source="Jix4g11LHQ9OMPvcUQxs-22" target="Jix4g11LHQ9OMPvcUQxs-1">
          <mxGeometry relative="1" as="geometry" />
        </mxCell>
        <mxCell id="Jix4g11LHQ9OMPvcUQxs-52" style="rounded=0;orthogonalLoop=1;jettySize=auto;html=1;exitX=1;exitY=0.5;exitDx=0;exitDy=0;entryX=0;entryY=0.5;entryDx=0;entryDy=0;" edge="1" parent="1" source="Jix4g11LHQ9OMPvcUQxs-22" target="Jix4g11LHQ9OMPvcUQxs-2">
          <mxGeometry relative="1" as="geometry" />
        </mxCell>
        <mxCell id="Jix4g11LHQ9OMPvcUQxs-53" style="rounded=0;orthogonalLoop=1;jettySize=auto;html=1;exitX=1;exitY=0.5;exitDx=0;exitDy=0;entryX=0;entryY=0.5;entryDx=0;entryDy=0;" edge="1" parent="1" source="Jix4g11LHQ9OMPvcUQxs-22" target="Jix4g11LHQ9OMPvcUQxs-3">
          <mxGeometry relative="1" as="geometry" />
        </mxCell>
        <mxCell id="Jix4g11LHQ9OMPvcUQxs-22" value="Pepper" style="text;html=1;strokeColor=none;fillColor=none;align=center;verticalAlign=middle;whiteSpace=wrap;rounded=0;" vertex="1" parent="1">
          <mxGeometry x="30" y="260" width="60" height="30" as="geometry" />
        </mxCell>
        <mxCell id="Jix4g11LHQ9OMPvcUQxs-54" style="rounded=0;orthogonalLoop=1;jettySize=auto;html=1;exitX=1;exitY=0.5;exitDx=0;exitDy=0;entryX=0;entryY=0.5;entryDx=0;entryDy=0;" edge="1" parent="1" source="Jix4g11LHQ9OMPvcUQxs-23" target="Jix4g11LHQ9OMPvcUQxs-1">
          <mxGeometry relative="1" as="geometry" />
        </mxCell>
        <mxCell id="Jix4g11LHQ9OMPvcUQxs-55" style="rounded=0;orthogonalLoop=1;jettySize=auto;html=1;exitX=1;exitY=0.5;exitDx=0;exitDy=0;entryX=0;entryY=0.5;entryDx=0;entryDy=0;" edge="1" parent="1" source="Jix4g11LHQ9OMPvcUQxs-23" target="Jix4g11LHQ9OMPvcUQxs-2">
          <mxGeometry relative="1" as="geometry" />
        </mxCell>
        <mxCell id="Jix4g11LHQ9OMPvcUQxs-56" style="rounded=0;orthogonalLoop=1;jettySize=auto;html=1;exitX=1;exitY=0.5;exitDx=0;exitDy=0;entryX=0;entryY=0.5;entryDx=0;entryDy=0;" edge="1" parent="1" source="Jix4g11LHQ9OMPvcUQxs-23" target="Jix4g11LHQ9OMPvcUQxs-3">
          <mxGeometry relative="1" as="geometry" />
        </mxCell>
        <mxCell id="Jix4g11LHQ9OMPvcUQxs-23" value="Onion" style="text;html=1;strokeColor=none;fillColor=none;align=center;verticalAlign=middle;whiteSpace=wrap;rounded=0;" vertex="1" parent="1">
          <mxGeometry x="30" y="290" width="60" height="30" as="geometry" />
        </mxCell>
        <mxCell id="Jix4g11LHQ9OMPvcUQxs-57" style="rounded=0;orthogonalLoop=1;jettySize=auto;html=1;exitX=1;exitY=0.5;exitDx=0;exitDy=0;entryX=0;entryY=0.5;entryDx=0;entryDy=0;" edge="1" parent="1" source="Jix4g11LHQ9OMPvcUQxs-24" target="Jix4g11LHQ9OMPvcUQxs-1">
          <mxGeometry relative="1" as="geometry" />
        </mxCell>
        <mxCell id="Jix4g11LHQ9OMPvcUQxs-58" style="rounded=0;orthogonalLoop=1;jettySize=auto;html=1;exitX=1;exitY=0.5;exitDx=0;exitDy=0;entryX=0;entryY=0.5;entryDx=0;entryDy=0;" edge="1" parent="1" source="Jix4g11LHQ9OMPvcUQxs-24" target="Jix4g11LHQ9OMPvcUQxs-2">
          <mxGeometry relative="1" as="geometry" />
        </mxCell>
        <mxCell id="Jix4g11LHQ9OMPvcUQxs-59" style="rounded=0;orthogonalLoop=1;jettySize=auto;html=1;exitX=1;exitY=0.5;exitDx=0;exitDy=0;entryX=0;entryY=0.5;entryDx=0;entryDy=0;" edge="1" parent="1" source="Jix4g11LHQ9OMPvcUQxs-24" target="Jix4g11LHQ9OMPvcUQxs-3">
          <mxGeometry relative="1" as="geometry" />
        </mxCell>
        <mxCell id="Jix4g11LHQ9OMPvcUQxs-24" value="Mozzarella" style="text;html=1;strokeColor=none;fillColor=none;align=center;verticalAlign=middle;whiteSpace=wrap;rounded=0;" vertex="1" parent="1">
          <mxGeometry x="30" y="320" width="60" height="30" as="geometry" />
        </mxCell>
        <mxCell id="Jix4g11LHQ9OMPvcUQxs-60" style="rounded=0;orthogonalLoop=1;jettySize=auto;html=1;exitX=1;exitY=0.5;exitDx=0;exitDy=0;entryX=0;entryY=0.5;entryDx=0;entryDy=0;" edge="1" parent="1" source="Jix4g11LHQ9OMPvcUQxs-25" target="Jix4g11LHQ9OMPvcUQxs-1">
          <mxGeometry relative="1" as="geometry" />
        </mxCell>
        <mxCell id="Jix4g11LHQ9OMPvcUQxs-61" style="rounded=0;orthogonalLoop=1;jettySize=auto;html=1;exitX=1;exitY=0.5;exitDx=0;exitDy=0;entryX=0;entryY=0.5;entryDx=0;entryDy=0;" edge="1" parent="1" source="Jix4g11LHQ9OMPvcUQxs-25" target="Jix4g11LHQ9OMPvcUQxs-2">
          <mxGeometry relative="1" as="geometry" />
        </mxCell>
        <mxCell id="Jix4g11LHQ9OMPvcUQxs-62" style="rounded=0;orthogonalLoop=1;jettySize=auto;html=1;exitX=1;exitY=0.5;exitDx=0;exitDy=0;entryX=0;entryY=0.5;entryDx=0;entryDy=0;" edge="1" parent="1" source="Jix4g11LHQ9OMPvcUQxs-25" target="Jix4g11LHQ9OMPvcUQxs-3">
          <mxGeometry relative="1" as="geometry" />
        </mxCell>
        <mxCell id="Jix4g11LHQ9OMPvcUQxs-25" value="Egg" style="text;html=1;strokeColor=none;fillColor=none;align=center;verticalAlign=middle;whiteSpace=wrap;rounded=0;" vertex="1" parent="1">
          <mxGeometry x="30" y="350" width="60" height="30" as="geometry" />
        </mxCell>
        <mxCell id="Jix4g11LHQ9OMPvcUQxs-63" style="rounded=0;orthogonalLoop=1;jettySize=auto;html=1;exitX=1;exitY=0.5;exitDx=0;exitDy=0;entryX=0;entryY=0.5;entryDx=0;entryDy=0;" edge="1" parent="1" source="Jix4g11LHQ9OMPvcUQxs-26" target="Jix4g11LHQ9OMPvcUQxs-1">
          <mxGeometry relative="1" as="geometry" />
        </mxCell>
        <mxCell id="Jix4g11LHQ9OMPvcUQxs-64" style="rounded=0;orthogonalLoop=1;jettySize=auto;html=1;exitX=1;exitY=0.5;exitDx=0;exitDy=0;entryX=0;entryY=0.5;entryDx=0;entryDy=0;" edge="1" parent="1" source="Jix4g11LHQ9OMPvcUQxs-26" target="Jix4g11LHQ9OMPvcUQxs-2">
          <mxGeometry relative="1" as="geometry" />
        </mxCell>
        <mxCell id="Jix4g11LHQ9OMPvcUQxs-65" style="rounded=0;orthogonalLoop=1;jettySize=auto;html=1;exitX=1;exitY=0.5;exitDx=0;exitDy=0;entryX=0;entryY=0.5;entryDx=0;entryDy=0;" edge="1" parent="1" source="Jix4g11LHQ9OMPvcUQxs-26" target="Jix4g11LHQ9OMPvcUQxs-3">
          <mxGeometry relative="1" as="geometry" />
        </mxCell>
        <mxCell id="Jix4g11LHQ9OMPvcUQxs-26" value="Pepperoni" style="text;html=1;strokeColor=none;fillColor=none;align=center;verticalAlign=middle;whiteSpace=wrap;rounded=0;" vertex="1" parent="1">
          <mxGeometry x="30" y="380" width="60" height="30" as="geometry" />
        </mxCell>
        <mxCell id="Jix4g11LHQ9OMPvcUQxs-66" style="rounded=0;orthogonalLoop=1;jettySize=auto;html=1;exitX=1;exitY=0.5;exitDx=0;exitDy=0;entryX=0;entryY=0.5;entryDx=0;entryDy=0;" edge="1" parent="1" source="Jix4g11LHQ9OMPvcUQxs-27" target="Jix4g11LHQ9OMPvcUQxs-1">
          <mxGeometry relative="1" as="geometry" />
        </mxCell>
        <mxCell id="Jix4g11LHQ9OMPvcUQxs-67" style="rounded=0;orthogonalLoop=1;jettySize=auto;html=1;exitX=1;exitY=0.5;exitDx=0;exitDy=0;entryX=0;entryY=0.5;entryDx=0;entryDy=0;" edge="1" parent="1" source="Jix4g11LHQ9OMPvcUQxs-27" target="Jix4g11LHQ9OMPvcUQxs-2">
          <mxGeometry relative="1" as="geometry" />
        </mxCell>
        <mxCell id="Jix4g11LHQ9OMPvcUQxs-68" style="rounded=0;orthogonalLoop=1;jettySize=auto;html=1;exitX=1;exitY=0.5;exitDx=0;exitDy=0;entryX=0;entryY=0.5;entryDx=0;entryDy=0;" edge="1" parent="1" source="Jix4g11LHQ9OMPvcUQxs-27" target="Jix4g11LHQ9OMPvcUQxs-3">
          <mxGeometry relative="1" as="geometry" />
        </mxCell>
        <mxCell id="Jix4g11LHQ9OMPvcUQxs-27" value="Beef" style="text;html=1;strokeColor=none;fillColor=none;align=center;verticalAlign=middle;whiteSpace=wrap;rounded=0;" vertex="1" parent="1">
          <mxGeometry x="30" y="410" width="60" height="30" as="geometry" />
        </mxCell>
        <mxCell id="Jix4g11LHQ9OMPvcUQxs-69" style="rounded=0;orthogonalLoop=1;jettySize=auto;html=1;exitX=1;exitY=0.5;exitDx=0;exitDy=0;entryX=0;entryY=0.5;entryDx=0;entryDy=0;" edge="1" parent="1" source="Jix4g11LHQ9OMPvcUQxs-28" target="Jix4g11LHQ9OMPvcUQxs-1">
          <mxGeometry relative="1" as="geometry" />
        </mxCell>
        <mxCell id="Jix4g11LHQ9OMPvcUQxs-70" style="rounded=0;orthogonalLoop=1;jettySize=auto;html=1;exitX=1;exitY=0.5;exitDx=0;exitDy=0;entryX=0;entryY=0.5;entryDx=0;entryDy=0;" edge="1" parent="1" source="Jix4g11LHQ9OMPvcUQxs-28" target="Jix4g11LHQ9OMPvcUQxs-2">
          <mxGeometry relative="1" as="geometry" />
        </mxCell>
        <mxCell id="Jix4g11LHQ9OMPvcUQxs-71" style="rounded=0;orthogonalLoop=1;jettySize=auto;html=1;exitX=1;exitY=0.5;exitDx=0;exitDy=0;entryX=0;entryY=0.5;entryDx=0;entryDy=0;" edge="1" parent="1" source="Jix4g11LHQ9OMPvcUQxs-28" target="Jix4g11LHQ9OMPvcUQxs-3">
          <mxGeometry relative="1" as="geometry" />
        </mxCell>
        <mxCell id="Jix4g11LHQ9OMPvcUQxs-28" value="Chicken" style="text;html=1;strokeColor=none;fillColor=none;align=center;verticalAlign=middle;whiteSpace=wrap;rounded=0;" vertex="1" parent="1">
          <mxGeometry x="30" y="440" width="60" height="30" as="geometry" />
        </mxCell>
        <mxCell id="Jix4g11LHQ9OMPvcUQxs-72" style="rounded=0;orthogonalLoop=1;jettySize=auto;html=1;exitX=1;exitY=0.5;exitDx=0;exitDy=0;entryX=0;entryY=0.5;entryDx=0;entryDy=0;" edge="1" parent="1" source="Jix4g11LHQ9OMPvcUQxs-29" target="Jix4g11LHQ9OMPvcUQxs-1">
          <mxGeometry relative="1" as="geometry" />
        </mxCell>
        <mxCell id="Jix4g11LHQ9OMPvcUQxs-73" style="rounded=0;orthogonalLoop=1;jettySize=auto;html=1;exitX=1;exitY=0.5;exitDx=0;exitDy=0;entryX=0;entryY=0.5;entryDx=0;entryDy=0;" edge="1" parent="1" source="Jix4g11LHQ9OMPvcUQxs-29" target="Jix4g11LHQ9OMPvcUQxs-2">
          <mxGeometry relative="1" as="geometry" />
        </mxCell>
        <mxCell id="Jix4g11LHQ9OMPvcUQxs-74" style="rounded=0;orthogonalLoop=1;jettySize=auto;html=1;exitX=1;exitY=0.5;exitDx=0;exitDy=0;entryX=0;entryY=0.5;entryDx=0;entryDy=0;" edge="1" parent="1" source="Jix4g11LHQ9OMPvcUQxs-29" target="Jix4g11LHQ9OMPvcUQxs-3">
          <mxGeometry relative="1" as="geometry" />
        </mxCell>
        <mxCell id="Jix4g11LHQ9OMPvcUQxs-29" value="Bacon" style="text;html=1;strokeColor=none;fillColor=none;align=center;verticalAlign=middle;whiteSpace=wrap;rounded=0;" vertex="1" parent="1">
          <mxGeometry x="30" y="470" width="60" height="30" as="geometry" />
        </mxCell>
      </root>
    </mxGraphModel>
  </diagram>
</mxfile>
